<svg xmlns="http://www.w3.org/2000/svg" width="400" height="340"><linearGradient id="grad1" x1="0%" y1="0%" x2="100%" y2="0%"><stop offset="0%" style="stop-color:#b55e5e;stop-opacity:1" /><stop offset="100%" style="stop-color:#ff0000;stop-opacity:1" /></linearGradient><path fill="url(#grad1)" d="M283.80330530779804,273.62124001347905C273.8161868828341,288.3582315861171,254.89301402310508,305.47148496996977,238.73003295101077,308.42194943582837C222.56705187891646,311.37241390168697,202.27526197968342,298.31498210985853,186.8254188752321,291.3240268086306C171.37557577078076,284.3330715074027,153.67773565746296,278.3635554298994,146.0309743243027,266.476217628461C138.38421299114242,254.58887982702254,140.87115594940119,235.43853004435152,140.9448508762705,220C141.0185458031398,204.56146995564848,139.19590538902034,186.86964951479536,146.47314388551854,173.84503736235183C153.75038238201674,160.8204252099083,170.6924091560087,144.40255908563554,184.60828185525975,141.8523270853388C198.5241545545108,139.30209508504205,215.10189430373202,153.2454735187714,229.96838008102492,158.54364536057136C244.8348658583178,163.84181720237132,262.35980261572206,163.39863236290034,273.80719651901705,173.64135813613845C285.25459042231205,183.88408390937656,296.9867253693312,203.33668635377657,298.6527435007947,220C300.3187616322582,236.66331364622343,293.790423732762,258.884248440841,283.80330530779804,273.62124001347905" stroke="none" stroke-width="3"/></svg>